# xmcd
#
# Track frame offsets:
#	150
#	16486
#	32877
#	50128
#	63073
#	75465
#	100271
#	114899
#	129768
#	147090
#	163273
#	182397
#	198917
#	212193
#	229284
#	243837
#	256707
#	269621
#	288203
#	306299
#	323178
#	336519
#
# Disc length: 4699 seconds
#
# Revision: 0
# Processed by: cddbd v1.5.2PL0 Copyright (c) Steve Scherf et al.
# Submitted via: EasyCDDAExtractor 16.0.9.1
#
DISCID=36125916
DTITLE=Various Artist - Viva Boom Boom Vol.42
DYEAR=2005
DGENRE=Dance
TTITLE0=Global Deejays - The Sound Of San Francisco
TTITLE1=Gunter feat. Samantha Fox - Touch Me
TTITLE2=Hard In Tango - This Is My DJ
TTITLE3=Sylver - Sympathy
TTITLE4=Springbreak - Big Bad Love
TTITLE5=Benassi Bros feat. Dhany - Make Me Feel
TTITLE6=Michael Gray - The Weekend
TTITLE7=DJ Bobo - Pirates Of Dance
TTITLE8=Tooga feat. Pit Balay - Behind Blue Eyes
TTITLE9=Habolin - Little Lies
TTITLE10=O-Zone - De Ce Plang Chitarele
TTITLE11=Future Trance United pres. Second Spring - Irresitible
TTITLE12=Brooklyn Bounce - This Is What We Are
TTITLE13=Amber - Sexual (Li Da Di)
TTITLE14=Tiesto - Just Be
TTITLE15=Stellar Project feat. Brandi Emma - Get Up Stand Up
TTITLE16=Issue - Everytime
TTITLE17=Phats and Small - Maybe Tonight
TTITLE18=Paffendorf - On and On
TTITLE19=DJ Sammy feat. Loona - Rise Again
TTITLE20=Angel City feat. Lara Mc Allen - Touch Me
TTITLE21=Lasgo - All Night Long
EXTD=
EXTT0=
EXTT1=
EXTT2=
EXTT3=
EXTT4=
EXTT5=
EXTT6=
EXTT7=
EXTT8=
EXTT9=
EXTT10=
EXTT11=
EXTT12=
EXTT13=
EXTT14=
EXTT15=
EXTT16=
EXTT17=
EXTT18=
EXTT19=
EXTT20=
EXTT21=
PLAYORDER=
